<svg xmlns="http://www.w3.org/2000/svg" width="1440" height="1024" viewBox="0 0 1440 1024" fill="none"><rect x="0" y="0" width="1440" height="1024" fill="#F5F6F8" id="Background" data-name="Background"/><g id="Dashboard admin" data-name="Dashboard admin"><g id="Sidebar" data-name="Sidebar"><rect x="0" y="0" width="240" height="1024" fill="#101828" id="Sidebar background" data-name="Sidebar background"/><rect x="24" y="26" width="30" height="30" rx="8" fill="#0E7490" id="Logo mark" data-name="Logo mark"/><text x="39" y="48" font-family="Inter, 'Segoe UI', Roboto, Helvetica, Arial, sans-serif" font-size="16" font-weight="800" fill="#FFFFFF" text-anchor="middle">T</text><text x="64" y="48" font-family="Inter, 'Segoe UI', Roboto, Helvetica, Arial, sans-serif" font-size="18" font-weight="700" fill="#FFFFFF" id="Wordmark" data-name="Wordmark">Turnly</text><text x="64" y="60" font-family="Inter, 'Segoe UI', Roboto, Helvetica, Arial, sans-serif" font-size="7.5" font-weight="500" fill="#5B6473" letter-spacing="0.6">workforce scheduling</text><g id="Navigation" data-name="Navigation"><rect x="12" y="100" width="216" height="36" rx="8" fill="#0E7490" id="Active pill" data-name="Active pill"/><g id="icon dashboard" data-name="icon dashboard"><rect x="28" y="109" width="7" height="7" rx="2" fill="none" stroke="#FFFFFF" stroke-width="1.6"/><rect x="37" y="109" width="7" height="7" rx="2" fill="none" stroke="#FFFFFF" stroke-width="1.6"/><rect x="28" y="118" width="7" height="7" rx="2" fill="none" stroke="#FFFFFF" stroke-width="1.6"/><rect x="37" y="118" width="7" height="7" rx="2" fill="none" stroke="#FFFFFF" stroke-width="1.6"/></g><text x="58" y="122" font-family="Inter, 'Segoe UI', Roboto, Helvetica, Arial, sans-serif" font-size="13.5" font-weight="600" fill="#FFFFFF" id="Nav Dashboard" data-name="Nav Dashboard">Dashboard</text><g id="icon matrice" data-name="icon matrice"><rect x="28" y="153" width="16" height="16" rx="2.5" fill="none" stroke="#98A2B3" stroke-width="1.6"/><line x1="28" y1="158.3" x2="44" y2="158.3" stroke="#98A2B3" stroke-width="1.6"/><line x1="28" y1="163.6" x2="44" y2="163.6" stroke="#98A2B3" stroke-width="1.6"/><line x1="33.3" y1="153" x2="33.3" y2="169" stroke="#98A2B3" stroke-width="1.6"/><line x1="38.6" y1="153" x2="38.6" y2="169" stroke="#98A2B3" stroke-width="1.6"/></g><text x="58" y="166" font-family="Inter, 'Segoe UI', Roboto, Helvetica, Arial, sans-serif" font-size="13.5" font-weight="500" fill="#98A2B3" id="Nav Matrice" data-name="Nav Matrice">Matrice</text><g id="icon richieste" data-name="icon richieste"><path d="M28 208 L32 208 L34 211 L38 211 L40 208 L44 208 L44 212 L28 212 Z" fill="none" stroke="#98A2B3" stroke-width="1.6" stroke-linecap="round" stroke-linejoin="round"/><path d="M30 208 L31.5 200 L40.5 200 L42 208" fill="none" stroke="#98A2B3" stroke-width="1.6" stroke-linecap="round" stroke-linejoin="round"/></g><text x="58" y="210" font-family="Inter, 'Segoe UI', Roboto, Helvetica, Arial, sans-serif" font-size="13.5" font-weight="500" fill="#98A2B3" id="Nav Richieste" data-name="Nav Richieste">Richieste</text><g id="icon assenze" data-name="icon assenze"><rect x="28" y="243" width="16" height="14" rx="2.5" fill="none" stroke="#98A2B3" stroke-width="1.6"/><line x1="28" y1="247" x2="44" y2="247" stroke="#98A2B3" stroke-width="1.6"/><line x1="32" y1="241" x2="32" y2="244" stroke="#98A2B3" stroke-width="1.6"/><line x1="40" y1="241" x2="40" y2="244" stroke="#98A2B3" stroke-width="1.6"/></g><text x="58" y="254" font-family="Inter, 'Segoe UI', Roboto, Helvetica, Arial, sans-serif" font-size="13.5" font-weight="500" fill="#98A2B3" id="Nav Assenze" data-name="Nav Assenze">Assenze</text><g id="icon coperture" data-name="icon coperture"><circle cx="33" cy="290" r="3" fill="none" stroke="#98A2B3" stroke-width="1.6"/><path d="M28 300 C28 295.5 38 295.5 38 300" fill="none" stroke="#98A2B3" stroke-width="1.6" stroke-linecap="round" stroke-linejoin="round"/><circle cx="40.5" cy="290.5" r="2.4" fill="none" stroke="#98A2B3" stroke-width="1.6"/><path d="M37.5 300 C37.5 296.5 45 296.5 45 300" fill="none" stroke="#98A2B3" stroke-width="1.6" stroke-linecap="round" stroke-linejoin="round"/></g><text x="58" y="298" font-family="Inter, 'Segoe UI', Roboto, Helvetica, Arial, sans-serif" font-size="13.5" font-weight="500" fill="#98A2B3" id="Nav Coperture" data-name="Nav Coperture">Coperture</text><g id="icon anagrafica" data-name="icon anagrafica"><circle cx="36" cy="334" r="3.5" fill="none" stroke="#98A2B3" stroke-width="1.6"/><path d="M29 345 C29 338.5 43 338.5 43 345" fill="none" stroke="#98A2B3" stroke-width="1.6" stroke-linecap="round" stroke-linejoin="round"/></g><text x="58" y="342" font-family="Inter, 'Segoe UI', Roboto, Helvetica, Arial, sans-serif" font-size="13.5" font-weight="500" fill="#98A2B3" id="Nav Anagrafica" data-name="Nav Anagrafica">Anagrafica</text><g id="icon report" data-name="icon report"><line x1="30" y1="389" x2="30" y2="382" stroke="#98A2B3" stroke-width="1.6"/><line x1="36" y1="389" x2="36" y2="376" stroke="#98A2B3" stroke-width="1.6"/><line x1="42" y1="389" x2="42" y2="384" stroke="#98A2B3" stroke-width="1.6"/><line x1="27" y1="389" x2="44" y2="389" stroke="#98A2B3" stroke-width="1.6"/></g><text x="58" y="386" font-family="Inter, 'Segoe UI', Roboto, Helvetica, Arial, sans-serif" font-size="13.5" font-weight="500" fill="#98A2B3" id="Nav Report" data-name="Nav Report">Report</text></g><line x1="20" y1="900" x2="220" y2="900" stroke="#26303F" stroke-width="1"/><g id="icon impostazioni" data-name="icon impostazioni"><circle cx="36" cy="923" r="2.6" fill="none" stroke="#98A2B3" stroke-width="1.6"/><circle cx="36" cy="923" r="6.4" fill="none" stroke="#98A2B3" stroke-width="1.6"/></g><text x="58" y="928" font-family="Inter, 'Segoe UI', Roboto, Helvetica, Arial, sans-serif" font-size="13.5" font-weight="500" fill="#98A2B3">Impostazioni</text></g><g id="Topbar" data-name="Topbar"><line x1="240" y1="64" x2="1440" y2="64" stroke="#E4E7EC" stroke-width="1" id="Topbar divider" data-name="Topbar divider"/><text x="264" y="40" font-family="Inter, 'Segoe UI', Roboto, Helvetica, Arial, sans-serif" font-size="13" font-weight="500" fill="#667085" id="Breadcrumb" data-name="Breadcrumb">Panoramica  ›  Dashboard</text><rect x="1090" y="16" width="220" height="32" rx="8" fill="#FFFFFF" stroke="#E4E7EC" stroke-width="1" id="Search" data-name="Search"/><g id="icon search" data-name="icon search"><circle cx="1110" cy="30" r="5" fill="none" stroke="#98A2B3" stroke-width="1.6"/><line x1="1113.6" y1="33.6" x2="1118" y2="38" stroke="#98A2B3" stroke-width="1.6"/></g><text x="1128" y="36" font-family="Inter, 'Segoe UI', Roboto, Helvetica, Arial, sans-serif" font-size="12.5" font-weight="400" fill="#98A2B3">Cerca dipendente…</text><g id="icon bell" data-name="icon bell"><path d="M1344 33.5 C1345.5 33.5 1345 28 C1345 25.2 1346.6 24 1349 24 C1351.4 24 1353 25.2 1353 28 C1352.5 33.5 1354 33.5 Z" fill="none" stroke="#1D2433" stroke-width="1.6" stroke-linecap="round" stroke-linejoin="round"/><path d="M1347 35.5 C1347.6 37.3 1350.4 37.3 1351 35.5" fill="none" stroke="#1D2433" stroke-width="1.6" stroke-linecap="round" stroke-linejoin="round"/></g><circle cx="1358" cy="22" r="7" fill="#D92D20" id="Notif badge" data-name="Notif badge"/><text x="1358" y="25.5" font-family="Inter, 'Segoe UI', Roboto, Helvetica, Arial, sans-serif" font-size="9" font-weight="700" fill="#FFFFFF" text-anchor="middle">3</text><circle cx="1400" cy="32" r="16" fill="#CFF3F6" id="Avatar" data-name="Avatar"/><text x="1400" y="37" font-family="Inter, 'Segoe UI', Roboto, Helvetica, Arial, sans-serif" font-size="12" font-weight="700" fill="#0B5A70" text-anchor="middle">CA</text></g><text x="264" y="116" font-family="Inter, 'Segoe UI', Roboto, Helvetica, Arial, sans-serif" font-size="22" font-weight="700" fill="#1D2433" id="Page title" data-name="Page title">Dashboard</text><text x="264" y="140" font-family="Inter, 'Segoe UI', Roboto, Helvetica, Arial, sans-serif" font-size="13" font-weight="400" fill="#667085" id="Subtitle" data-name="Subtitle">Terapia intensiva  ·  Settimana 13 – 19 gennaio 2026</text><rect x="264" y="168" width="273" height="112" rx="12" fill="#FFFFFF" stroke="#E4E7EC" stroke-width="1" id="KPI Richieste in attesa" data-name="KPI Richieste in attesa"/><rect x="264" y="168" width="4" height="112" fill="#0E7490" id="accent" data-name="accent"/><rect x="264" y="168" width="273" height="112" rx="12" fill="none" stroke="#E4E7EC" stroke-width="1"/><text x="284" y="202" font-family="Inter, 'Segoe UI', Roboto, Helvetica, Arial, sans-serif" font-size="12.5" font-weight="600" fill="#667085">Richieste in attesa</text><text x="284" y="242" font-family="Inter, 'Segoe UI', Roboto, Helvetica, Arial, sans-serif" font-size="30" font-weight="700" fill="#0E7490">4</text><text x="284" y="266" font-family="Inter, 'Segoe UI', Roboto, Helvetica, Arial, sans-serif" font-size="11.5" font-weight="400" fill="#667085">da approvare</text><rect x="557" y="168" width="273" height="112" rx="12" fill="#FFFFFF" stroke="#E4E7EC" stroke-width="1" id="KPI Violazioni aperte" data-name="KPI Violazioni aperte"/><rect x="557" y="168" width="4" height="112" fill="#DC6803" id="accent" data-name="accent"/><rect x="557" y="168" width="273" height="112" rx="12" fill="none" stroke="#E4E7EC" stroke-width="1"/><text x="577" y="202" font-family="Inter, 'Segoe UI', Roboto, Helvetica, Arial, sans-serif" font-size="12.5" font-weight="600" fill="#667085">Violazioni aperte</text><text x="577" y="242" font-family="Inter, 'Segoe UI', Roboto, Helvetica, Arial, sans-serif" font-size="30" font-weight="700" fill="#DC6803">3</text><text x="577" y="266" font-family="Inter, 'Segoe UI', Roboto, Helvetica, Arial, sans-serif" font-size="11.5" font-weight="400" fill="#667085">2 avvisi · 1 bloccante</text><rect x="850" y="168" width="273" height="112" rx="12" fill="#FFFFFF" stroke="#E4E7EC" stroke-width="1" id="KPI Coperture da colmare" data-name="KPI Coperture da colmare"/><rect x="850" y="168" width="4" height="112" fill="#D92D20" id="accent" data-name="accent"/><rect x="850" y="168" width="273" height="112" rx="12" fill="none" stroke="#E4E7EC" stroke-width="1"/><text x="870" y="202" font-family="Inter, 'Segoe UI', Roboto, Helvetica, Arial, sans-serif" font-size="12.5" font-weight="600" fill="#667085">Coperture da colmare</text><text x="870" y="242" font-family="Inter, 'Segoe UI', Roboto, Helvetica, Arial, sans-serif" font-size="30" font-weight="700" fill="#D92D20">2</text><text x="870" y="266" font-family="Inter, 'Segoe UI', Roboto, Helvetica, Arial, sans-serif" font-size="11.5" font-weight="400" fill="#667085">notte Sab e Dom</text><rect x="1143" y="168" width="273" height="112" rx="12" fill="#FFFFFF" stroke="#E4E7EC" stroke-width="1" id="KPI Ore pianificate" data-name="KPI Ore pianificate"/><rect x="1143" y="168" width="4" height="112" fill="#1D2433" id="accent" data-name="accent"/><rect x="1143" y="168" width="273" height="112" rx="12" fill="none" stroke="#E4E7EC" stroke-width="1"/><text x="1163" y="202" font-family="Inter, 'Segoe UI', Roboto, Helvetica, Arial, sans-serif" font-size="12.5" font-weight="600" fill="#667085">Ore pianificate</text><text x="1163" y="242" font-family="Inter, 'Segoe UI', Roboto, Helvetica, Arial, sans-serif" font-size="30" font-weight="700" fill="#1D2433">312h</text><text x="1163" y="266" font-family="Inter, 'Segoe UI', Roboto, Helvetica, Arial, sans-serif" font-size="11.5" font-weight="400" fill="#667085">+18h straordinario</text><rect x="264" y="308" width="700" height="430" rx="12" fill="#FFFFFF" stroke="#E4E7EC" stroke-width="1" id="Recent activity panel" data-name="Recent activity panel"/><text x="284" y="342" font-family="Inter, 'Segoe UI', Roboto, Helvetica, Arial, sans-serif" font-size="15" font-weight="700" fill="#1D2433">Attività recente</text><text x="900" y="342" font-family="Inter, 'Segoe UI', Roboto, Helvetica, Arial, sans-serif" font-size="12" font-weight="600" fill="#0E7490">Vedi tutte</text><line x1="264" y1="360" x2="964" y2="360" stroke="#EEF0F3" stroke-width="1"/><circle cx="298" cy="397" r="15" fill="#EEE8FB"/><text x="298" y="402" font-family="Inter, 'Segoe UI', Roboto, Helvetica, Arial, sans-serif" font-size="13" font-weight="700" fill="#6B28C4" text-anchor="middle">S</text><text x="326" y="392" font-family="Inter, 'Segoe UI', Roboto, Helvetica, Arial, sans-serif" font-size="13.5" font-weight="600" fill="#1D2433">Maria Rossi</text><text x="326" y="410" font-family="Inter, 'Segoe UI', Roboto, Helvetica, Arial, sans-serif" font-size="11.5" font-weight="400" fill="#667085">Scambio turno · Scambio con Sara Greco · Ven 17 gen</text><g id="Pill In attesa" data-name="Pill In attesa"><rect x="756" y="384" width="96" height="22" rx="11.0" fill="#FEF0C7"/><text x="767" y="399.0" font-family="Inter, 'Segoe UI', Roboto, Helvetica, Arial, sans-serif" font-size="11.5" font-weight="600" fill="#DC6803">In attesa</text></g><text x="944" y="402" font-family="Inter, 'Segoe UI', Roboto, Helvetica, Arial, sans-serif" font-size="11" font-weight="400" fill="#98A2B3" text-anchor="end">2 ore fa</text><line x1="284" y1="434" x2="944" y2="434" stroke="#EEF0F3" stroke-width="1"/><circle cx="298" cy="471" r="15" fill="#E7F6EC"/><text x="298" y="476" font-family="Inter, 'Segoe UI', Roboto, Helvetica, Arial, sans-serif" font-size="13" font-weight="700" fill="#087443" text-anchor="middle">A</text><text x="326" y="466" font-family="Inter, 'Segoe UI', Roboto, Helvetica, Arial, sans-serif" font-size="13.5" font-weight="600" fill="#1D2433">Paolo Russo</text><text x="326" y="484" font-family="Inter, 'Segoe UI', Roboto, Helvetica, Arial, sans-serif" font-size="11.5" font-weight="400" fill="#667085">Assenza · Permesso · 20 gennaio</text><g id="Pill In attesa" data-name="Pill In attesa"><rect x="756" y="458" width="96" height="22" rx="11.0" fill="#FEF0C7"/><text x="767" y="473.0" font-family="Inter, 'Segoe UI', Roboto, Helvetica, Arial, sans-serif" font-size="11.5" font-weight="600" fill="#DC6803">In attesa</text></g><text x="944" y="476" font-family="Inter, 'Segoe UI', Roboto, Helvetica, Arial, sans-serif" font-size="11" font-weight="400" fill="#98A2B3" text-anchor="end">5 ore fa</text><line x1="284" y1="508" x2="944" y2="508" stroke="#EEF0F3" stroke-width="1"/><circle cx="298" cy="545" r="15" fill="#EEE8FB"/><text x="298" y="550" font-family="Inter, 'Segoe UI', Roboto, Helvetica, Arial, sans-serif" font-size="13" font-weight="700" fill="#6B28C4" text-anchor="middle">N</text><text x="326" y="540" font-family="Inter, 'Segoe UI', Roboto, Helvetica, Arial, sans-serif" font-size="13.5" font-weight="600" fill="#1D2433">Marco Ferrari</text><text x="326" y="558" font-family="Inter, 'Segoe UI', Roboto, Helvetica, Arial, sans-serif" font-size="11.5" font-weight="400" fill="#667085">Nuovo turno · Copertura Dom 19 · Notte</text><g id="Pill In attesa" data-name="Pill In attesa"><rect x="756" y="532" width="96" height="22" rx="11.0" fill="#FEF0C7"/><text x="767" y="547.0" font-family="Inter, 'Segoe UI', Roboto, Helvetica, Arial, sans-serif" font-size="11.5" font-weight="600" fill="#DC6803">In attesa</text></g><text x="944" y="550" font-family="Inter, 'Segoe UI', Roboto, Helvetica, Arial, sans-serif" font-size="11" font-weight="400" fill="#98A2B3" text-anchor="end">ieri</text><line x1="284" y1="582" x2="944" y2="582" stroke="#EEF0F3" stroke-width="1"/><circle cx="298" cy="619" r="15" fill="#E7F6EC"/><text x="298" y="624" font-family="Inter, 'Segoe UI', Roboto, Helvetica, Arial, sans-serif" font-size="13" font-weight="700" fill="#087443" text-anchor="middle">A</text><text x="326" y="614" font-family="Inter, 'Segoe UI', Roboto, Helvetica, Arial, sans-serif" font-size="13.5" font-weight="600" fill="#1D2433">Elena Ricci</text><text x="326" y="632" font-family="Inter, 'Segoe UI', Roboto, Helvetica, Arial, sans-serif" font-size="11.5" font-weight="400" fill="#667085">Assenza · Ferie · 13 – 17 gennaio</text><g id="Pill Approvata" data-name="Pill Approvata"><rect x="756" y="606" width="96" height="22" rx="11.0" fill="#D1FADF"/><text x="767" y="621.0" font-family="Inter, 'Segoe UI', Roboto, Helvetica, Arial, sans-serif" font-size="11.5" font-weight="600" fill="#039855">Approvata</text></g><text x="944" y="624" font-family="Inter, 'Segoe UI', Roboto, Helvetica, Arial, sans-serif" font-size="11" font-weight="400" fill="#98A2B3" text-anchor="end">2 giorni fa</text><line x1="284" y1="656" x2="944" y2="656" stroke="#EEF0F3" stroke-width="1"/><circle cx="298" cy="693" r="15" fill="#E7F0FE"/><text x="298" y="698" font-family="Inter, 'Segoe UI', Roboto, Helvetica, Arial, sans-serif" font-size="13" font-weight="700" fill="#1A56DB" text-anchor="middle">M</text><text x="326" y="688" font-family="Inter, 'Segoe UI', Roboto, Helvetica, Arial, sans-serif" font-size="13.5" font-weight="600" fill="#1D2433">Giulia Conti</text><text x="326" y="706" font-family="Inter, 'Segoe UI', Roboto, Helvetica, Arial, sans-serif" font-size="11.5" font-weight="400" fill="#667085">Modifica turno · Anticipo Mer 15 · 06:00 → 08:00</text><g id="Pill Approvata" data-name="Pill Approvata"><rect x="756" y="680" width="96" height="22" rx="11.0" fill="#D1FADF"/><text x="767" y="695.0" font-family="Inter, 'Segoe UI', Roboto, Helvetica, Arial, sans-serif" font-size="11.5" font-weight="600" fill="#039855">Approvata</text></g><text x="944" y="698" font-family="Inter, 'Segoe UI', Roboto, Helvetica, Arial, sans-serif" font-size="11" font-weight="400" fill="#98A2B3" text-anchor="end">2 giorni fa</text><rect x="984" y="308" width="432" height="430" rx="12" fill="#FFFFFF" stroke="#E4E7EC" stroke-width="1" id="Coverage panel" data-name="Coverage panel"/><text x="1004" y="342" font-family="Inter, 'Segoe UI', Roboto, Helvetica, Arial, sans-serif" font-size="15" font-weight="700" fill="#1D2433">Copertura per giorno</text><line x1="984" y1="360" x2="1416" y2="360" stroke="#EEF0F3" stroke-width="1"/><text x="1004" y="384" font-family="Inter, 'Segoe UI', Roboto, Helvetica, Arial, sans-serif" font-size="12" font-weight="500" fill="#667085">Lun 13</text><rect x="1064" y="372" width="282" height="12" rx="6" fill="#EEF0F3"/><rect x="1064" y="372" width="282" height="12" rx="6" fill="#039855"/><text x="1396" y="384" font-family="Inter, 'Segoe UI', Roboto, Helvetica, Arial, sans-serif" font-size="11.5" font-weight="700" fill="#039855" text-anchor="end">3/3</text><text x="1004" y="414" font-family="Inter, 'Segoe UI', Roboto, Helvetica, Arial, sans-serif" font-size="12" font-weight="500" fill="#667085">Mar 14</text><rect x="1064" y="402" width="282" height="12" rx="6" fill="#EEF0F3"/><rect x="1064" y="402" width="186" height="12" rx="6" fill="#DC6803"/><text x="1396" y="414" font-family="Inter, 'Segoe UI', Roboto, Helvetica, Arial, sans-serif" font-size="11.5" font-weight="700" fill="#DC6803" text-anchor="end">2/3</text><text x="1004" y="444" font-family="Inter, 'Segoe UI', Roboto, Helvetica, Arial, sans-serif" font-size="12" font-weight="500" fill="#667085">Mer 15</text><rect x="1064" y="432" width="282" height="12" rx="6" fill="#EEF0F3"/><rect x="1064" y="432" width="282" height="12" rx="6" fill="#039855"/><text x="1396" y="444" font-family="Inter, 'Segoe UI', Roboto, Helvetica, Arial, sans-serif" font-size="11.5" font-weight="700" fill="#039855" text-anchor="end">3/3</text><text x="1004" y="474" font-family="Inter, 'Segoe UI', Roboto, Helvetica, Arial, sans-serif" font-size="12" font-weight="500" fill="#667085">Gio 16</text><rect x="1064" y="462" width="282" height="12" rx="6" fill="#EEF0F3"/><rect x="1064" y="462" width="282" height="12" rx="6" fill="#039855"/><text x="1396" y="474" font-family="Inter, 'Segoe UI', Roboto, Helvetica, Arial, sans-serif" font-size="11.5" font-weight="700" fill="#039855" text-anchor="end">3/3</text><text x="1004" y="504" font-family="Inter, 'Segoe UI', Roboto, Helvetica, Arial, sans-serif" font-size="12" font-weight="500" fill="#667085">Ven 17</text><rect x="1064" y="492" width="282" height="12" rx="6" fill="#EEF0F3"/><rect x="1064" y="492" width="282" height="12" rx="6" fill="#039855"/><text x="1396" y="504" font-family="Inter, 'Segoe UI', Roboto, Helvetica, Arial, sans-serif" font-size="11.5" font-weight="700" fill="#039855" text-anchor="end">3/3</text><text x="1004" y="534" font-family="Inter, 'Segoe UI', Roboto, Helvetica, Arial, sans-serif" font-size="12" font-weight="500" fill="#667085">Sab 18</text><rect x="1064" y="522" width="282" height="12" rx="6" fill="#EEF0F3"/><rect x="1064" y="522" width="186" height="12" rx="6" fill="#DC6803"/><text x="1396" y="534" font-family="Inter, 'Segoe UI', Roboto, Helvetica, Arial, sans-serif" font-size="11.5" font-weight="700" fill="#DC6803" text-anchor="end">2/3</text><text x="1004" y="564" font-family="Inter, 'Segoe UI', Roboto, Helvetica, Arial, sans-serif" font-size="12" font-weight="500" fill="#667085">Dom 19</text><rect x="1064" y="552" width="282" height="12" rx="6" fill="#EEF0F3"/><rect x="1064" y="552" width="186" height="12" rx="6" fill="#DC6803"/><text x="1396" y="564" font-family="Inter, 'Segoe UI', Roboto, Helvetica, Arial, sans-serif" font-size="11.5" font-weight="700" fill="#DC6803" text-anchor="end">2/3</text><line x1="1004" y1="592" x2="1396" y2="592" stroke="#EEF0F3" stroke-width="1"/><text x="1004" y="624" font-family="Inter, 'Segoe UI', Roboto, Helvetica, Arial, sans-serif" font-size="13.5" font-weight="700" fill="#1D2433">Prossime assenze</text><rect x="1004" y="642" width="10" height="10" rx="3" fill="#E7F6EC"/><text x="1022" y="651" font-family="Inter, 'Segoe UI', Roboto, Helvetica, Arial, sans-serif" font-size="12.5" font-weight="600" fill="#1D2433">Elena Ricci</text><text x="1396" y="651" font-family="Inter, 'Segoe UI', Roboto, Helvetica, Arial, sans-serif" font-size="11" font-weight="400" fill="#667085" text-anchor="end">Ferie · 13 – 17 gen</text><rect x="1004" y="670" width="10" height="10" rx="3" fill="#F2F4F7"/><text x="1022" y="679" font-family="Inter, 'Segoe UI', Roboto, Helvetica, Arial, sans-serif" font-size="12.5" font-weight="600" fill="#1D2433">Davide Marino</text><text x="1396" y="679" font-family="Inter, 'Segoe UI', Roboto, Helvetica, Arial, sans-serif" font-size="11" font-weight="400" fill="#667085" text-anchor="end">Malattia · 14 – 15 gen</text></g></svg>