<svg xmlns="http://www.w3.org/2000/svg" width="1440" height="1024" viewBox="0 0 1440 1024" fill="none"><rect x="0" y="0" width="1440" height="1024" fill="#F5F6F8" id="Background" data-name="Background"/><g id="Editor turno — modale" data-name="Editor turno — modale"><g id="Sidebar" data-name="Sidebar"><rect x="0" y="0" width="240" height="1024" fill="#101828" id="Sidebar background" data-name="Sidebar background"/><rect x="24" y="26" width="30" height="30" rx="8" fill="#0E7490" id="Logo mark" data-name="Logo mark"/><text x="39" y="48" font-family="Inter, 'Segoe UI', Roboto, Helvetica, Arial, sans-serif" font-size="16" font-weight="800" fill="#FFFFFF" text-anchor="middle">T</text><text x="64" y="48" font-family="Inter, 'Segoe UI', Roboto, Helvetica, Arial, sans-serif" font-size="18" font-weight="700" fill="#FFFFFF" id="Wordmark" data-name="Wordmark">Turnly</text><text x="64" y="60" font-family="Inter, 'Segoe UI', Roboto, Helvetica, Arial, sans-serif" font-size="7.5" font-weight="500" fill="#5B6473" letter-spacing="0.6">workforce scheduling</text><g id="Navigation" data-name="Navigation"><g id="icon dashboard" data-name="icon dashboard"><rect x="28" y="109" width="7" height="7" rx="2" fill="none" stroke="#98A2B3" stroke-width="1.6"/><rect x="37" y="109" width="7" height="7" rx="2" fill="none" stroke="#98A2B3" stroke-width="1.6"/><rect x="28" y="118" width="7" height="7" rx="2" fill="none" stroke="#98A2B3" stroke-width="1.6"/><rect x="37" y="118" width="7" height="7" rx="2" fill="none" stroke="#98A2B3" stroke-width="1.6"/></g><text x="58" y="122" font-family="Inter, 'Segoe UI', Roboto, Helvetica, Arial, sans-serif" font-size="13.5" font-weight="500" fill="#98A2B3" id="Nav Dashboard" data-name="Nav Dashboard">Dashboard</text><rect x="12" y="144" width="216" height="36" rx="8" fill="#0E7490" id="Active pill" data-name="Active pill"/><g id="icon matrice" data-name="icon matrice"><rect x="28" y="153" width="16" height="16" rx="2.5" fill="none" stroke="#FFFFFF" stroke-width="1.6"/><line x1="28" y1="158.3" x2="44" y2="158.3" stroke="#FFFFFF" stroke-width="1.6"/><line x1="28" y1="163.6" x2="44" y2="163.6" stroke="#FFFFFF" stroke-width="1.6"/><line x1="33.3" y1="153" x2="33.3" y2="169" stroke="#FFFFFF" stroke-width="1.6"/><line x1="38.6" y1="153" x2="38.6" y2="169" stroke="#FFFFFF" stroke-width="1.6"/></g><text x="58" y="166" font-family="Inter, 'Segoe UI', Roboto, Helvetica, Arial, sans-serif" font-size="13.5" font-weight="600" fill="#FFFFFF" id="Nav Matrice" data-name="Nav Matrice">Matrice</text><g id="icon richieste" data-name="icon richieste"><path d="M28 208 L32 208 L34 211 L38 211 L40 208 L44 208 L44 212 L28 212 Z" fill="none" stroke="#98A2B3" stroke-width="1.6" stroke-linecap="round" stroke-linejoin="round"/><path d="M30 208 L31.5 200 L40.5 200 L42 208" fill="none" stroke="#98A2B3" stroke-width="1.6" stroke-linecap="round" stroke-linejoin="round"/></g><text x="58" y="210" font-family="Inter, 'Segoe UI', Roboto, Helvetica, Arial, sans-serif" font-size="13.5" font-weight="500" fill="#98A2B3" id="Nav Richieste" data-name="Nav Richieste">Richieste</text><g id="icon assenze" data-name="icon assenze"><rect x="28" y="243" width="16" height="14" rx="2.5" fill="none" stroke="#98A2B3" stroke-width="1.6"/><line x1="28" y1="247" x2="44" y2="247" stroke="#98A2B3" stroke-width="1.6"/><line x1="32" y1="241" x2="32" y2="244" stroke="#98A2B3" stroke-width="1.6"/><line x1="40" y1="241" x2="40" y2="244" stroke="#98A2B3" stroke-width="1.6"/></g><text x="58" y="254" font-family="Inter, 'Segoe UI', Roboto, Helvetica, Arial, sans-serif" font-size="13.5" font-weight="500" fill="#98A2B3" id="Nav Assenze" data-name="Nav Assenze">Assenze</text><g id="icon coperture" data-name="icon coperture"><circle cx="33" cy="290" r="3" fill="none" stroke="#98A2B3" stroke-width="1.6"/><path d="M28 300 C28 295.5 38 295.5 38 300" fill="none" stroke="#98A2B3" stroke-width="1.6" stroke-linecap="round" stroke-linejoin="round"/><circle cx="40.5" cy="290.5" r="2.4" fill="none" stroke="#98A2B3" stroke-width="1.6"/><path d="M37.5 300 C37.5 296.5 45 296.5 45 300" fill="none" stroke="#98A2B3" stroke-width="1.6" stroke-linecap="round" stroke-linejoin="round"/></g><text x="58" y="298" font-family="Inter, 'Segoe UI', Roboto, Helvetica, Arial, sans-serif" font-size="13.5" font-weight="500" fill="#98A2B3" id="Nav Coperture" data-name="Nav Coperture">Coperture</text><g id="icon anagrafica" data-name="icon anagrafica"><circle cx="36" cy="334" r="3.5" fill="none" stroke="#98A2B3" stroke-width="1.6"/><path d="M29 345 C29 338.5 43 338.5 43 345" fill="none" stroke="#98A2B3" stroke-width="1.6" stroke-linecap="round" stroke-linejoin="round"/></g><text x="58" y="342" font-family="Inter, 'Segoe UI', Roboto, Helvetica, Arial, sans-serif" font-size="13.5" font-weight="500" fill="#98A2B3" id="Nav Anagrafica" data-name="Nav Anagrafica">Anagrafica</text><g id="icon report" data-name="icon report"><line x1="30" y1="389" x2="30" y2="382" stroke="#98A2B3" stroke-width="1.6"/><line x1="36" y1="389" x2="36" y2="376" stroke="#98A2B3" stroke-width="1.6"/><line x1="42" y1="389" x2="42" y2="384" stroke="#98A2B3" stroke-width="1.6"/><line x1="27" y1="389" x2="44" y2="389" stroke="#98A2B3" stroke-width="1.6"/></g><text x="58" y="386" font-family="Inter, 'Segoe UI', Roboto, Helvetica, Arial, sans-serif" font-size="13.5" font-weight="500" fill="#98A2B3" id="Nav Report" data-name="Nav Report">Report</text></g><line x1="20" y1="900" x2="220" y2="900" stroke="#26303F" stroke-width="1"/><g id="icon impostazioni" data-name="icon impostazioni"><circle cx="36" cy="923" r="2.6" fill="none" stroke="#98A2B3" stroke-width="1.6"/><circle cx="36" cy="923" r="6.4" fill="none" stroke="#98A2B3" stroke-width="1.6"/></g><text x="58" y="928" font-family="Inter, 'Segoe UI', Roboto, Helvetica, Arial, sans-serif" font-size="13.5" font-weight="500" fill="#98A2B3">Impostazioni</text></g><g id="Topbar" data-name="Topbar"><line x1="240" y1="64" x2="1440" y2="64" stroke="#E4E7EC" stroke-width="1" id="Topbar divider" data-name="Topbar divider"/><text x="264" y="40" font-family="Inter, 'Segoe UI', Roboto, Helvetica, Arial, sans-serif" font-size="13" font-weight="500" fill="#667085" id="Breadcrumb" data-name="Breadcrumb">Pianificazione  ›  Matrice turni</text><rect x="1090" y="16" width="220" height="32" rx="8" fill="#FFFFFF" stroke="#E4E7EC" stroke-width="1" id="Search" data-name="Search"/><g id="icon search" data-name="icon search"><circle cx="1110" cy="30" r="5" fill="none" stroke="#98A2B3" stroke-width="1.6"/><line x1="1113.6" y1="33.6" x2="1118" y2="38" stroke="#98A2B3" stroke-width="1.6"/></g><text x="1128" y="36" font-family="Inter, 'Segoe UI', Roboto, Helvetica, Arial, sans-serif" font-size="12.5" font-weight="400" fill="#98A2B3">Cerca dipendente…</text><g id="icon bell" data-name="icon bell"><path d="M1344 33.5 C1345.5 33.5 1345 28 C1345 25.2 1346.6 24 1349 24 C1351.4 24 1353 25.2 1353 28 C1352.5 33.5 1354 33.5 Z" fill="none" stroke="#1D2433" stroke-width="1.6" stroke-linecap="round" stroke-linejoin="round"/><path d="M1347 35.5 C1347.6 37.3 1350.4 37.3 1351 35.5" fill="none" stroke="#1D2433" stroke-width="1.6" stroke-linecap="round" stroke-linejoin="round"/></g><circle cx="1358" cy="22" r="7" fill="#D92D20" id="Notif badge" data-name="Notif badge"/><text x="1358" y="25.5" font-family="Inter, 'Segoe UI', Roboto, Helvetica, Arial, sans-serif" font-size="9" font-weight="700" fill="#FFFFFF" text-anchor="middle">3</text><circle cx="1400" cy="32" r="16" fill="#CFF3F6" id="Avatar" data-name="Avatar"/><text x="1400" y="37" font-family="Inter, 'Segoe UI', Roboto, Helvetica, Arial, sans-serif" font-size="12" font-weight="700" fill="#0B5A70" text-anchor="middle">CA</text></g><text x="264" y="116" font-family="Inter, 'Segoe UI', Roboto, Helvetica, Arial, sans-serif" font-size="22" font-weight="700" fill="#B7BEC9">Matrice turni</text><text x="264" y="140" font-family="Inter, 'Segoe UI', Roboto, Helvetica, Arial, sans-serif" font-size="13" font-weight="400" fill="#C4CAD3">Settimana 13 – 19 gennaio 2026</text><rect x="264" y="168" width="1152" height="600" rx="12" fill="#FFFFFF" stroke="#EEF0F3" stroke-width="1" opacity="0.6"/><line x1="264" y1="220" x2="1416" y2="220" stroke="#F0F2F5" stroke-width="1"/><line x1="264" y1="310" x2="1416" y2="310" stroke="#F0F2F5" stroke-width="1"/><line x1="264" y1="400" x2="1416" y2="400" stroke="#F0F2F5" stroke-width="1"/><line x1="264" y1="490" x2="1416" y2="490" stroke="#F0F2F5" stroke-width="1"/><line x1="264" y1="580" x2="1416" y2="580" stroke="#F0F2F5" stroke-width="1"/><line x1="264" y1="670" x2="1416" y2="670" stroke="#F0F2F5" stroke-width="1"/><rect x="240" y="64" width="1200" height="960" fill="#0C1220" opacity="0.55" id="Scrim" data-name="Scrim"/><g id="Modal — Assegna turno" data-name="Modal — Assegna turno"><rect x="572" y="150" width="560" height="632" rx="16" fill="#FFFFFF" id="Modal card" data-name="Modal card"/><text x="600" y="192" font-family="Inter, 'Segoe UI', Roboto, Helvetica, Arial, sans-serif" font-size="18" font-weight="700" fill="#1D2433" id="Modal title" data-name="Modal title">Assegna turno</text><g id="icon close" data-name="icon close"><line x1="1093" y1="177" x2="1103" y2="187" stroke="#667085" stroke-width="2.0"/><line x1="1103" y1="177" x2="1093" y2="187" stroke="#667085" stroke-width="2.0"/></g><line x1="572" y1="214" x2="1132" y2="214" stroke="#EEF0F3" stroke-width="1"/><g id="Field Dipendente" data-name="Field Dipendente"><text x="600" y="246" font-family="Inter, 'Segoe UI', Roboto, Helvetica, Arial, sans-serif" font-size="12.5" font-weight="600" fill="#667085" id="Label Dipendente" data-name="Label Dipendente">Dipendente</text><rect x="600" y="258" width="504" height="42" rx="8" fill="#FFFFFF" stroke="#E4E7EC" stroke-width="1" id="Input" data-name="Input"/><text x="614" y="285" font-family="Inter, 'Segoe UI', Roboto, Helvetica, Arial, sans-serif" font-size="13.5" font-weight="500" fill="#1D2433">Luca Bianchi  ·  Infermiere</text><g id="icon chevron" data-name="icon chevron"><path d="M1081 277 L1086 282 L1091 277" fill="none" stroke="#667085" stroke-width="1.6" stroke-linecap="round" stroke-linejoin="round"/></g></g><g id="Field Data" data-name="Field Data"><text x="600" y="316" font-family="Inter, 'Segoe UI', Roboto, Helvetica, Arial, sans-serif" font-size="12.5" font-weight="600" fill="#667085" id="Label Data" data-name="Label Data">Data</text><rect x="600" y="328" width="504" height="42" rx="8" fill="#FFFFFF" stroke="#E4E7EC" stroke-width="1" id="Input" data-name="Input"/><text x="614" y="355" font-family="Inter, 'Segoe UI', Roboto, Helvetica, Arial, sans-serif" font-size="13.5" font-weight="500" fill="#1D2433">Giovedì 16 gennaio 2026</text><g id="icon chevron" data-name="icon chevron"><path d="M1081 347 L1086 352 L1091 347" fill="none" stroke="#667085" stroke-width="1.6" stroke-linecap="round" stroke-linejoin="round"/></g></g><g id="Field Tipologia" data-name="Field Tipologia"><text x="600" y="386" font-family="Inter, 'Segoe UI', Roboto, Helvetica, Arial, sans-serif" font-size="12.5" font-weight="600" fill="#667085" id="Label Tipologia" data-name="Label Tipologia">Tipologia</text><rect x="600" y="398" width="504" height="42" rx="8" fill="#FFFFFF" stroke="#E4E7EC" stroke-width="1" id="Input" data-name="Input"/><text x="614" y="425" font-family="Inter, 'Segoe UI', Roboto, Helvetica, Arial, sans-serif" font-size="13.5" font-weight="500" fill="#1D2433">Notte  ·  22:00 – 06:00</text><g id="icon chevron" data-name="icon chevron"><path d="M1081 417 L1086 422 L1091 417" fill="none" stroke="#667085" stroke-width="1.6" stroke-linecap="round" stroke-linejoin="round"/></g></g><g id="Toggle Segna come straordinario" data-name="Toggle Segna come straordinario"><text x="600" y="478" font-family="Inter, 'Segoe UI', Roboto, Helvetica, Arial, sans-serif" font-size="13.5" font-weight="500" fill="#1D2433">Segna come straordinario</text><rect x="820" y="466" width="40" height="22" rx="11.0" fill="#D0D5DD"/><circle cx="831" cy="477" r="8" fill="#FFFFFF"/></g><g id="Area Note" data-name="Area Note"><text x="600" y="502" font-family="Inter, 'Segoe UI', Roboto, Helvetica, Arial, sans-serif" font-size="12.5" font-weight="600" fill="#667085">Note</text><rect x="600" y="514" width="504" height="52" rx="8" fill="#FFFFFF" stroke="#E4E7EC" stroke-width="1"/><text x="614" y="534" font-family="Inter, 'Segoe UI', Roboto, Helvetica, Arial, sans-serif" font-size="13" font-weight="400" fill="#98A2B3">Aggiungi una nota…</text></g><rect x="600" y="592" width="504" height="116" rx="10" fill="#FCFCFD" stroke="#E4E7EC" stroke-width="1" id="Rule check panel" data-name="Rule check panel"/><text x="616" y="618" font-family="Inter, 'Segoe UI', Roboto, Helvetica, Arial, sans-serif" font-size="12.5" font-weight="700" fill="#1D2433">Controllo regole</text><g id="Check Nessuna sovrappo" data-name="Check Nessuna sovrappo"><g id="icon check" data-name="icon check"><path d="M619 644.5 L622.5 648 L629.5 640" fill="none" stroke="#039855" stroke-width="2.2" stroke-linecap="round" stroke-linejoin="round"/></g><text x="642" y="648" font-family="Inter, 'Segoe UI', Roboto, Helvetica, Arial, sans-serif" font-size="12.5" font-weight="500" fill="#1D2433">Nessuna sovrapposizione (RB-01)</text></g><g id="Check Riposo tra turni" data-name="Check Riposo tra turni"><g id="icon warn" data-name="icon warn"><path d="M624 662 L631.5 675 L616.5 675 Z" fill="none" stroke="#DC6803" stroke-width="1.7" stroke-linecap="round" stroke-linejoin="round"/><line x1="624" y1="666.5" x2="624" y2="670.5" stroke="#DC6803" stroke-width="1.7"/><circle cx="624" cy="672.6" r="0.7" fill="#DC6803"/></g><text x="642" y="672" font-family="Inter, 'Segoe UI', Roboto, Helvetica, Arial, sans-serif" font-size="12.5" font-weight="500" fill="#1D2433">Riposo tra turni: 8h — minimo 11h (RB-02)</text></g><g id="Check Copertura Inferm" data-name="Check Copertura Inferm"><g id="icon check" data-name="icon check"><path d="M619 692.5 L622.5 696 L629.5 688" fill="none" stroke="#039855" stroke-width="2.2" stroke-linecap="round" stroke-linejoin="round"/></g><text x="642" y="696" font-family="Inter, 'Segoe UI', Roboto, Helvetica, Arial, sans-serif" font-size="12.5" font-weight="500" fill="#1D2433">Copertura Infermieri notte: 3/3 (RB-07)</text></g><g id="Button Salva turno" data-name="Button Salva turno"><rect x="966" y="726" width="138" height="38" rx="8" fill="#0E7490"/><text x="984" y="749.5" font-family="Inter, 'Segoe UI', Roboto, Helvetica, Arial, sans-serif" font-size="13" font-weight="600" fill="#FFFFFF">Salva turno</text></g><g id="Button Annulla" data-name="Button Annulla"><rect x="858" y="726" width="96" height="38" rx="8" fill="#FFFFFF" stroke="#E4E7EC" stroke-width="1"/><text x="876" y="749.5" font-family="Inter, 'Segoe UI', Roboto, Helvetica, Arial, sans-serif" font-size="13" font-weight="600" fill="#1D2433">Annulla</text></g></g></g></svg>