<svg xmlns="http://www.w3.org/2000/svg" width="1440" height="1024" viewBox="0 0 1440 1024" fill="none"><rect x="0" y="0" width="1440" height="1024" fill="#F5F6F8" id="Background" data-name="Background"/><g id="Coda approvazioni — admin" data-name="Coda approvazioni — admin"><g id="Sidebar" data-name="Sidebar"><rect x="0" y="0" width="240" height="1024" fill="#101828" id="Sidebar background" data-name="Sidebar background"/><rect x="24" y="26" width="30" height="30" rx="8" fill="#0E7490" id="Logo mark" data-name="Logo mark"/><text x="39" y="48" font-family="Inter, 'Segoe UI', Roboto, Helvetica, Arial, sans-serif" font-size="16" font-weight="800" fill="#FFFFFF" text-anchor="middle">T</text><text x="64" y="48" font-family="Inter, 'Segoe UI', Roboto, Helvetica, Arial, sans-serif" font-size="18" font-weight="700" fill="#FFFFFF" id="Wordmark" data-name="Wordmark">Turnly</text><text x="64" y="60" font-family="Inter, 'Segoe UI', Roboto, Helvetica, Arial, sans-serif" font-size="7.5" font-weight="500" fill="#5B6473" letter-spacing="0.6">workforce scheduling</text><g id="Navigation" data-name="Navigation"><g id="icon dashboard" data-name="icon dashboard"><rect x="28" y="109" width="7" height="7" rx="2" fill="none" stroke="#98A2B3" stroke-width="1.6"/><rect x="37" y="109" width="7" height="7" rx="2" fill="none" stroke="#98A2B3" stroke-width="1.6"/><rect x="28" y="118" width="7" height="7" rx="2" fill="none" stroke="#98A2B3" stroke-width="1.6"/><rect x="37" y="118" width="7" height="7" rx="2" fill="none" stroke="#98A2B3" stroke-width="1.6"/></g><text x="58" y="122" font-family="Inter, 'Segoe UI', Roboto, Helvetica, Arial, sans-serif" font-size="13.5" font-weight="500" fill="#98A2B3" id="Nav Dashboard" data-name="Nav Dashboard">Dashboard</text><g id="icon matrice" data-name="icon matrice"><rect x="28" y="153" width="16" height="16" rx="2.5" fill="none" stroke="#98A2B3" stroke-width="1.6"/><line x1="28" y1="158.3" x2="44" y2="158.3" stroke="#98A2B3" stroke-width="1.6"/><line x1="28" y1="163.6" x2="44" y2="163.6" stroke="#98A2B3" stroke-width="1.6"/><line x1="33.3" y1="153" x2="33.3" y2="169" stroke="#98A2B3" stroke-width="1.6"/><line x1="38.6" y1="153" x2="38.6" y2="169" stroke="#98A2B3" stroke-width="1.6"/></g><text x="58" y="166" font-family="Inter, 'Segoe UI', Roboto, Helvetica, Arial, sans-serif" font-size="13.5" font-weight="500" fill="#98A2B3" id="Nav Matrice" data-name="Nav Matrice">Matrice</text><rect x="12" y="188" width="216" height="36" rx="8" fill="#0E7490" id="Active pill" data-name="Active pill"/><g id="icon richieste" data-name="icon richieste"><path d="M28 208 L32 208 L34 211 L38 211 L40 208 L44 208 L44 212 L28 212 Z" fill="none" stroke="#FFFFFF" stroke-width="1.6" stroke-linecap="round" stroke-linejoin="round"/><path d="M30 208 L31.5 200 L40.5 200 L42 208" fill="none" stroke="#FFFFFF" stroke-width="1.6" stroke-linecap="round" stroke-linejoin="round"/></g><text x="58" y="210" font-family="Inter, 'Segoe UI', Roboto, Helvetica, Arial, sans-serif" font-size="13.5" font-weight="600" fill="#FFFFFF" id="Nav Richieste" data-name="Nav Richieste">Richieste</text><g id="icon assenze" data-name="icon assenze"><rect x="28" y="243" width="16" height="14" rx="2.5" fill="none" stroke="#98A2B3" stroke-width="1.6"/><line x1="28" y1="247" x2="44" y2="247" stroke="#98A2B3" stroke-width="1.6"/><line x1="32" y1="241" x2="32" y2="244" stroke="#98A2B3" stroke-width="1.6"/><line x1="40" y1="241" x2="40" y2="244" stroke="#98A2B3" stroke-width="1.6"/></g><text x="58" y="254" font-family="Inter, 'Segoe UI', Roboto, Helvetica, Arial, sans-serif" font-size="13.5" font-weight="500" fill="#98A2B3" id="Nav Assenze" data-name="Nav Assenze">Assenze</text><g id="icon coperture" data-name="icon coperture"><circle cx="33" cy="290" r="3" fill="none" stroke="#98A2B3" stroke-width="1.6"/><path d="M28 300 C28 295.5 38 295.5 38 300" fill="none" stroke="#98A2B3" stroke-width="1.6" stroke-linecap="round" stroke-linejoin="round"/><circle cx="40.5" cy="290.5" r="2.4" fill="none" stroke="#98A2B3" stroke-width="1.6"/><path d="M37.5 300 C37.5 296.5 45 296.5 45 300" fill="none" stroke="#98A2B3" stroke-width="1.6" stroke-linecap="round" stroke-linejoin="round"/></g><text x="58" y="298" font-family="Inter, 'Segoe UI', Roboto, Helvetica, Arial, sans-serif" font-size="13.5" font-weight="500" fill="#98A2B3" id="Nav Coperture" data-name="Nav Coperture">Coperture</text><g id="icon anagrafica" data-name="icon anagrafica"><circle cx="36" cy="334" r="3.5" fill="none" stroke="#98A2B3" stroke-width="1.6"/><path d="M29 345 C29 338.5 43 338.5 43 345" fill="none" stroke="#98A2B3" stroke-width="1.6" stroke-linecap="round" stroke-linejoin="round"/></g><text x="58" y="342" font-family="Inter, 'Segoe UI', Roboto, Helvetica, Arial, sans-serif" font-size="13.5" font-weight="500" fill="#98A2B3" id="Nav Anagrafica" data-name="Nav Anagrafica">Anagrafica</text><g id="icon report" data-name="icon report"><line x1="30" y1="389" x2="30" y2="382" stroke="#98A2B3" stroke-width="1.6"/><line x1="36" y1="389" x2="36" y2="376" stroke="#98A2B3" stroke-width="1.6"/><line x1="42" y1="389" x2="42" y2="384" stroke="#98A2B3" stroke-width="1.6"/><line x1="27" y1="389" x2="44" y2="389" stroke="#98A2B3" stroke-width="1.6"/></g><text x="58" y="386" font-family="Inter, 'Segoe UI', Roboto, Helvetica, Arial, sans-serif" font-size="13.5" font-weight="500" fill="#98A2B3" id="Nav Report" data-name="Nav Report">Report</text></g><line x1="20" y1="900" x2="220" y2="900" stroke="#26303F" stroke-width="1"/><g id="icon impostazioni" data-name="icon impostazioni"><circle cx="36" cy="923" r="2.6" fill="none" stroke="#98A2B3" stroke-width="1.6"/><circle cx="36" cy="923" r="6.4" fill="none" stroke="#98A2B3" stroke-width="1.6"/></g><text x="58" y="928" font-family="Inter, 'Segoe UI', Roboto, Helvetica, Arial, sans-serif" font-size="13.5" font-weight="500" fill="#98A2B3">Impostazioni</text></g><g id="Topbar" data-name="Topbar"><line x1="240" y1="64" x2="1440" y2="64" stroke="#E4E7EC" stroke-width="1" id="Topbar divider" data-name="Topbar divider"/><text x="264" y="40" font-family="Inter, 'Segoe UI', Roboto, Helvetica, Arial, sans-serif" font-size="13" font-weight="500" fill="#667085" id="Breadcrumb" data-name="Breadcrumb">Richieste  ›  Approvazioni</text><rect x="1090" y="16" width="220" height="32" rx="8" fill="#FFFFFF" stroke="#E4E7EC" stroke-width="1" id="Search" data-name="Search"/><g id="icon search" data-name="icon search"><circle cx="1110" cy="30" r="5" fill="none" stroke="#98A2B3" stroke-width="1.6"/><line x1="1113.6" y1="33.6" x2="1118" y2="38" stroke="#98A2B3" stroke-width="1.6"/></g><text x="1128" y="36" font-family="Inter, 'Segoe UI', Roboto, Helvetica, Arial, sans-serif" font-size="12.5" font-weight="400" fill="#98A2B3">Cerca dipendente…</text><g id="icon bell" data-name="icon bell"><path d="M1344 33.5 C1345.5 33.5 1345 28 C1345 25.2 1346.6 24 1349 24 C1351.4 24 1353 25.2 1353 28 C1352.5 33.5 1354 33.5 Z" fill="none" stroke="#1D2433" stroke-width="1.6" stroke-linecap="round" stroke-linejoin="round"/><path d="M1347 35.5 C1347.6 37.3 1350.4 37.3 1351 35.5" fill="none" stroke="#1D2433" stroke-width="1.6" stroke-linecap="round" stroke-linejoin="round"/></g><circle cx="1358" cy="22" r="7" fill="#D92D20" id="Notif badge" data-name="Notif badge"/><text x="1358" y="25.5" font-family="Inter, 'Segoe UI', Roboto, Helvetica, Arial, sans-serif" font-size="9" font-weight="700" fill="#FFFFFF" text-anchor="middle">3</text><circle cx="1400" cy="32" r="16" fill="#CFF3F6" id="Avatar" data-name="Avatar"/><text x="1400" y="37" font-family="Inter, 'Segoe UI', Roboto, Helvetica, Arial, sans-serif" font-size="12" font-weight="700" fill="#0B5A70" text-anchor="middle">CA</text></g><text x="264" y="116" font-family="Inter, 'Segoe UI', Roboto, Helvetica, Arial, sans-serif" font-size="22" font-weight="700" fill="#1D2433" id="Page title" data-name="Page title">Richieste</text><text x="264" y="140" font-family="Inter, 'Segoe UI', Roboto, Helvetica, Arial, sans-serif" font-size="13" font-weight="400" fill="#667085" id="Subtitle" data-name="Subtitle">4 in attesa di approvazione</text><g id="Pill Tutte le richieste" data-name="Pill Tutte le richieste"><rect x="1298" y="100" width="118" height="30" rx="15.0" fill="#FFFFFF"/><text x="1309" y="119.0" font-family="Inter, 'Segoe UI', Roboto, Helvetica, Arial, sans-serif" font-size="11.5" font-weight="600" fill="#1D2433">Tutte le richieste</text></g><rect x="1298" y="100" width="118" height="30" rx="15" fill="none" stroke="#E4E7EC" stroke-width="1"/><rect x="264" y="168" width="468" height="620" rx="12" fill="#FFFFFF" stroke="#E4E7EC" stroke-width="1" id="Request list" data-name="Request list"/><text x="284" y="202" font-family="Inter, 'Segoe UI', Roboto, Helvetica, Arial, sans-serif" font-size="13" font-weight="700" fill="#667085">In attesa (4)</text><line x1="264" y1="220" x2="732" y2="220" stroke="#EEF0F3" stroke-width="1"/><rect x="264" y="220" width="468" height="96" fill="#ECFBFD"/><rect x="264" y="220" width="4" height="96" fill="#0E7490"/><circle cx="300" cy="254" r="15" fill="#EEE8FB"/><text x="300" y="259" font-family="Inter, 'Segoe UI', Roboto, Helvetica, Arial, sans-serif" font-size="13" font-weight="700" fill="#6B28C4" text-anchor="middle">S</text><text x="328" y="250" font-family="Inter, 'Segoe UI', Roboto, Helvetica, Arial, sans-serif" font-size="13.5" font-weight="700" fill="#1D2433">Maria Rossi</text><text x="328" y="269" font-family="Inter, 'Segoe UI', Roboto, Helvetica, Arial, sans-serif" font-size="11.5" font-weight="500" fill="#667085">Scambio turno</text><text x="328" y="289" font-family="Inter, 'Segoe UI', Roboto, Helvetica, Arial, sans-serif" font-size="11.5" font-weight="400" fill="#667085">Scambio con Sara Greco · Ven 17 gen</text><g id="Pill In attesa" data-name="Pill In attesa"><rect x="624" y="238" width="88" height="22" rx="11.0" fill="#FEF0C7"/><text x="635" y="253.0" font-family="Inter, 'Segoe UI', Roboto, Helvetica, Arial, sans-serif" font-size="11.5" font-weight="600" fill="#DC6803">In attesa</text></g><text x="712" y="292" font-family="Inter, 'Segoe UI', Roboto, Helvetica, Arial, sans-serif" font-size="11" font-weight="400" fill="#98A2B3" text-anchor="end">2 ore fa</text><line x1="264" y1="316" x2="732" y2="316" stroke="#EEF0F3" stroke-width="1"/><circle cx="300" cy="350" r="15" fill="#E7F6EC"/><text x="300" y="355" font-family="Inter, 'Segoe UI', Roboto, Helvetica, Arial, sans-serif" font-size="13" font-weight="700" fill="#087443" text-anchor="middle">A</text><text x="328" y="346" font-family="Inter, 'Segoe UI', Roboto, Helvetica, Arial, sans-serif" font-size="13.5" font-weight="700" fill="#1D2433">Paolo Russo</text><text x="328" y="365" font-family="Inter, 'Segoe UI', Roboto, Helvetica, Arial, sans-serif" font-size="11.5" font-weight="500" fill="#667085">Assenza</text><text x="328" y="385" font-family="Inter, 'Segoe UI', Roboto, Helvetica, Arial, sans-serif" font-size="11.5" font-weight="400" fill="#667085">Permesso · 20 gennaio</text><g id="Pill In attesa" data-name="Pill In attesa"><rect x="624" y="334" width="88" height="22" rx="11.0" fill="#FEF0C7"/><text x="635" y="349.0" font-family="Inter, 'Segoe UI', Roboto, Helvetica, Arial, sans-serif" font-size="11.5" font-weight="600" fill="#DC6803">In attesa</text></g><text x="712" y="388" font-family="Inter, 'Segoe UI', Roboto, Helvetica, Arial, sans-serif" font-size="11" font-weight="400" fill="#98A2B3" text-anchor="end">5 ore fa</text><line x1="264" y1="412" x2="732" y2="412" stroke="#EEF0F3" stroke-width="1"/><circle cx="300" cy="446" r="15" fill="#EEE8FB"/><text x="300" y="451" font-family="Inter, 'Segoe UI', Roboto, Helvetica, Arial, sans-serif" font-size="13" font-weight="700" fill="#6B28C4" text-anchor="middle">N</text><text x="328" y="442" font-family="Inter, 'Segoe UI', Roboto, Helvetica, Arial, sans-serif" font-size="13.5" font-weight="700" fill="#1D2433">Marco Ferrari</text><text x="328" y="461" font-family="Inter, 'Segoe UI', Roboto, Helvetica, Arial, sans-serif" font-size="11.5" font-weight="500" fill="#667085">Nuovo turno</text><text x="328" y="481" font-family="Inter, 'Segoe UI', Roboto, Helvetica, Arial, sans-serif" font-size="11.5" font-weight="400" fill="#667085">Copertura Dom 19 · Notte</text><g id="Pill In attesa" data-name="Pill In attesa"><rect x="624" y="430" width="88" height="22" rx="11.0" fill="#FEF0C7"/><text x="635" y="445.0" font-family="Inter, 'Segoe UI', Roboto, Helvetica, Arial, sans-serif" font-size="11.5" font-weight="600" fill="#DC6803">In attesa</text></g><text x="712" y="484" font-family="Inter, 'Segoe UI', Roboto, Helvetica, Arial, sans-serif" font-size="11" font-weight="400" fill="#98A2B3" text-anchor="end">ieri</text><line x1="264" y1="508" x2="732" y2="508" stroke="#EEF0F3" stroke-width="1"/><circle cx="300" cy="542" r="15" fill="#E7F0FE"/><text x="300" y="547" font-family="Inter, 'Segoe UI', Roboto, Helvetica, Arial, sans-serif" font-size="13" font-weight="700" fill="#1A56DB" text-anchor="middle">M</text><text x="328" y="538" font-family="Inter, 'Segoe UI', Roboto, Helvetica, Arial, sans-serif" font-size="13.5" font-weight="700" fill="#1D2433">Giulia Conti</text><text x="328" y="557" font-family="Inter, 'Segoe UI', Roboto, Helvetica, Arial, sans-serif" font-size="11.5" font-weight="500" fill="#667085">Modifica turno</text><text x="328" y="577" font-family="Inter, 'Segoe UI', Roboto, Helvetica, Arial, sans-serif" font-size="11.5" font-weight="400" fill="#667085">Anticipo Mer 15 · 06:00 → 08:00</text><g id="Pill In attesa" data-name="Pill In attesa"><rect x="624" y="526" width="88" height="22" rx="11.0" fill="#FEF0C7"/><text x="635" y="541.0" font-family="Inter, 'Segoe UI', Roboto, Helvetica, Arial, sans-serif" font-size="11.5" font-weight="600" fill="#DC6803">In attesa</text></g><text x="712" y="580" font-family="Inter, 'Segoe UI', Roboto, Helvetica, Arial, sans-serif" font-size="11" font-weight="400" fill="#98A2B3" text-anchor="end">ieri</text><line x1="264" y1="604" x2="732" y2="604" stroke="#EEF0F3" stroke-width="1"/><text x="284" y="634" font-family="Inter, 'Segoe UI', Roboto, Helvetica, Arial, sans-serif" font-size="12" font-weight="700" fill="#667085" letter-spacing="0.3">Recenti</text><circle cx="300" cy="666" r="15" fill="#E7F6EC"/><text x="300" y="671" font-family="Inter, 'Segoe UI', Roboto, Helvetica, Arial, sans-serif" font-size="13" font-weight="700" fill="#087443" text-anchor="middle">A</text><text x="328" y="662" font-family="Inter, 'Segoe UI', Roboto, Helvetica, Arial, sans-serif" font-size="13.5" font-weight="700" fill="#1D2433">Elena Ricci</text><text x="328" y="681" font-family="Inter, 'Segoe UI', Roboto, Helvetica, Arial, sans-serif" font-size="11.5" font-weight="400" fill="#667085">Assenza · Ferie 13 – 17 gen</text><g id="Pill Approvata" data-name="Pill Approvata"><rect x="624" y="652" width="88" height="22" rx="11.0" fill="#D1FADF"/><text x="635" y="667.0" font-family="Inter, 'Segoe UI', Roboto, Helvetica, Arial, sans-serif" font-size="11.5" font-weight="600" fill="#039855">Approvata</text></g><g id="Detail — Scambio turno" data-name="Detail — Scambio turno"><rect x="752" y="168" width="664" height="620" rx="12" fill="#FFFFFF" stroke="#E4E7EC" stroke-width="1" id="Request detail" data-name="Request detail"/><text x="780" y="208" font-family="Inter, 'Segoe UI', Roboto, Helvetica, Arial, sans-serif" font-size="18" font-weight="700" fill="#1D2433">Scambio turno</text><g id="Pill In attesa" data-name="Pill In attesa"><rect x="930" y="192" width="88" height="22" rx="11.0" fill="#FEF0C7"/><text x="941" y="207.0" font-family="Inter, 'Segoe UI', Roboto, Helvetica, Arial, sans-serif" font-size="11.5" font-weight="600" fill="#DC6803">In attesa</text></g><text x="780" y="230" font-family="Inter, 'Segoe UI', Roboto, Helvetica, Arial, sans-serif" font-size="12.5" font-weight="400" fill="#667085">Richiesta da Maria Rossi · Infermiere · 2 ore fa</text><line x1="752" y1="248" x2="1416" y2="248" stroke="#EEF0F3" stroke-width="1"/><g id="Turno Maria Rossi" data-name="Turno Maria Rossi"><rect x="780" y="272" width="276.0" height="96" rx="10" fill="#FCFCFD" stroke="#E4E7EC" stroke-width="1"/><text x="796" y="300" font-family="Inter, 'Segoe UI', Roboto, Helvetica, Arial, sans-serif" font-size="13" font-weight="700" fill="#1D2433">Maria Rossi</text><text x="796" y="320" font-family="Inter, 'Segoe UI', Roboto, Helvetica, Arial, sans-serif" font-size="11.5" font-weight="500" fill="#667085">Venerdì 17 gennaio</text><rect x="796" y="330" width="244.0" height="26" rx="7" fill="#EEE8FB"/><text x="808" y="347" font-family="Inter, 'Segoe UI', Roboto, Helvetica, Arial, sans-serif" font-size="11.5" font-weight="600" fill="#6B28C4">Notte · 22:00–06:00</text></g><g id="Turno Sara Greco" data-name="Turno Sara Greco"><rect x="1112.0" y="272" width="276.0" height="96" rx="10" fill="#FCFCFD" stroke="#E4E7EC" stroke-width="1"/><text x="1128.0" y="300" font-family="Inter, 'Segoe UI', Roboto, Helvetica, Arial, sans-serif" font-size="13" font-weight="700" fill="#1D2433">Sara Greco</text><text x="1128.0" y="320" font-family="Inter, 'Segoe UI', Roboto, Helvetica, Arial, sans-serif" font-size="11.5" font-weight="500" fill="#667085">Venerdì 17 gennaio</text><rect x="1128.0" y="330" width="244.0" height="26" rx="7" fill="#E7F0FE"/><text x="1140.0" y="347" font-family="Inter, 'Segoe UI', Roboto, Helvetica, Arial, sans-serif" font-size="11.5" font-weight="600" fill="#1A56DB">Mattina · 06:00–14:00</text></g><circle cx="1084.0" cy="320" r="16" fill="#ECFBFD"/><g id="icon swap" data-name="icon swap"><path d="M1078.0 317 L1090.0 317 M1087.0 314 L1090.5 317 L1087.0 320" fill="none" stroke="#0E7490" stroke-width="1.7" stroke-linecap="round" stroke-linejoin="round"/><path d="M1090.0 324 L1078.0 324 M1081.0 321 L1077.5 324 L1081.0 327" fill="none" stroke="#0E7490" stroke-width="1.7" stroke-linecap="round" stroke-linejoin="round"/></g><text x="780" y="400" font-family="Inter, 'Segoe UI', Roboto, Helvetica, Arial, sans-serif" font-size="13.5" font-weight="700" fill="#1D2433">Anteprima impatto</text><text x="780" y="418" font-family="Inter, 'Segoe UI', Roboto, Helvetica, Arial, sans-serif" font-size="11.5" font-weight="400" fill="#667085">Ricontrollo delle regole per entrambe le parti</text><text x="780" y="444" font-family="Inter, 'Segoe UI', Roboto, Helvetica, Arial, sans-serif" font-size="12" font-weight="700" fill="#1D2433">Maria riceve · Mattina</text><g id="Check Nessuna sovrappo" data-name="Check Nessuna sovrappo"><g id="icon check" data-name="icon check"><path d="M783 470.5 L786.5 474 L793.5 466" fill="none" stroke="#039855" stroke-width="2.2" stroke-linecap="round" stroke-linejoin="round"/></g><text x="806" y="474" font-family="Inter, 'Segoe UI', Roboto, Helvetica, Arial, sans-serif" font-size="12.5" font-weight="500" fill="#1D2433">Nessuna sovrapposizione</text></g><g id="Check Riposo 12h ≥ 11h" data-name="Check Riposo 12h ≥ 11h"><g id="icon check" data-name="icon check"><path d="M783 494.5 L786.5 498 L793.5 490" fill="none" stroke="#039855" stroke-width="2.2" stroke-linecap="round" stroke-linejoin="round"/></g><text x="806" y="498" font-family="Inter, 'Segoe UI', Roboto, Helvetica, Arial, sans-serif" font-size="12.5" font-weight="500" fill="#1D2433">Riposo 12h ≥ 11h</text></g><g id="Check Ore settimana: 3" data-name="Check Ore settimana: 3"><g id="icon check" data-name="icon check"><path d="M783 518.5 L786.5 522 L793.5 514" fill="none" stroke="#039855" stroke-width="2.2" stroke-linecap="round" stroke-linejoin="round"/></g><text x="806" y="522" font-family="Inter, 'Segoe UI', Roboto, Helvetica, Arial, sans-serif" font-size="12.5" font-weight="500" fill="#1D2433">Ore settimana: 38h</text></g><text x="1104.0" y="444" font-family="Inter, 'Segoe UI', Roboto, Helvetica, Arial, sans-serif" font-size="12" font-weight="700" fill="#1D2433">Sara riceve · Notte</text><g id="Check Nessuna sovrappo" data-name="Check Nessuna sovrappo"><g id="icon check" data-name="icon check"><path d="M1107.0 470.5 L1110.5 474 L1117.5 466" fill="none" stroke="#039855" stroke-width="2.2" stroke-linecap="round" stroke-linejoin="round"/></g><text x="1130.0" y="474" font-family="Inter, 'Segoe UI', Roboto, Helvetica, Arial, sans-serif" font-size="12.5" font-weight="500" fill="#1D2433">Nessuna sovrapposizione</text></g><g id="Check Riposo 9h &lt; 11h " data-name="Check Riposo 9h &lt; 11h "><g id="icon warn" data-name="icon warn"><path d="M1112.0 488 L1119.5 501 L1104.5 501 Z" fill="none" stroke="#DC6803" stroke-width="1.7" stroke-linecap="round" stroke-linejoin="round"/><line x1="1112.0" y1="492.5" x2="1112.0" y2="496.5" stroke="#DC6803" stroke-width="1.7"/><circle cx="1112.0" cy="498.6" r="0.7" fill="#DC6803"/></g><text x="1130.0" y="498" font-family="Inter, 'Segoe UI', Roboto, Helvetica, Arial, sans-serif" font-size="12.5" font-weight="500" fill="#1D2433">Riposo 9h &lt; 11h (RB-02)</text></g><g id="Check Copertura notte:" data-name="Check Copertura notte:"><g id="icon check" data-name="icon check"><path d="M1107.0 518.5 L1110.5 522 L1117.5 514" fill="none" stroke="#039855" stroke-width="2.2" stroke-linecap="round" stroke-linejoin="round"/></g><text x="1130.0" y="522" font-family="Inter, 'Segoe UI', Roboto, Helvetica, Arial, sans-serif" font-size="12.5" font-weight="500" fill="#1D2433">Copertura notte: 3/3</text></g><rect x="780" y="552" width="608" height="44" rx="8" fill="#FEF0C7" opacity="0.55"/><g id="icon warn" data-name="icon warn"><path d="M802 568 L809.5 581 L794.5 581 Z" fill="none" stroke="#DC6803" stroke-width="1.6" stroke-linecap="round" stroke-linejoin="round"/><line x1="802" y1="572.5" x2="802" y2="576.5" stroke="#DC6803" stroke-width="1.6"/><circle cx="802" cy="578.6" r="0.7" fill="#DC6803"/></g><text x="820" y="580" font-family="Inter, 'Segoe UI', Roboto, Helvetica, Arial, sans-serif" font-size="12.5" font-weight="500" fill="#1D2433">Lo scambio genera 1 avviso — approvabile con conferma.</text><g id="Button Approva" data-name="Button Approva"><rect x="1260" y="732" width="128" height="38" rx="8" fill="#039855"/><text x="1278" y="755.5" font-family="Inter, 'Segoe UI', Roboto, Helvetica, Arial, sans-serif" font-size="13" font-weight="600" fill="#FFFFFF">Approva</text></g><g id="Button Rifiuta" data-name="Button Rifiuta"><rect x="1140" y="732" width="108" height="38" rx="8" fill="#FFFFFF" stroke="#FDA29B" stroke-width="1"/><text x="1158" y="755.5" font-family="Inter, 'Segoe UI', Roboto, Helvetica, Arial, sans-serif" font-size="13" font-weight="600" fill="#D92D20">Rifiuta</text></g></g></g></svg>